<svg xmlns="http://www.w3.org/2000/svg" width="80" height="80" viewBox="0 0 80 80" fill="none"><path fill-rule="evenodd" clip-rule="evenodd" d="M48.3118 6.37073C43.329 8.50552 36.1375 8.50551 31.1548 6.37072C27.1063 4.63622 22.5779 4.47538 18.3995 6.29289C9.58003 10.1292 5.62529 21.3414 9.46691 31.4541L9.46454 31.4551L15.7539 47.3054L21.6606 70.591C22.3183 73.1838 24.6424 74.9983 27.3057 74.9983C30.166 74.9983 32.6032 72.912 33.0573 70.0748L35.7366 53.3345C36.0521 51.363 37.7457 49.9132 39.7334 49.9132C41.721 49.9132 43.4146 51.363 43.7302 53.3346L46.4094 70.0748C46.8635 72.912 49.3007 74.9983 52.161 74.9983C54.8243 74.9983 57.1484 73.1838 57.8061 70.591L63.7127 47.3054L70.0021 31.4551L69.9998 31.4541C73.8414 21.3414 69.8866 10.1292 61.0672 6.29289C56.8888 4.47536 52.3603 4.63621 48.3118 6.37073Z" fill="url(#paint0_linear_8707_12202)"></path><mask id="mask0_8707_12202" style="mask-type:alpha" maskUnits="userSpaceOnUse" x="9" y="12" width="63" height="63"><path fill-rule="evenodd" clip-rule="evenodd" d="M9.58594 31.7627L15.7532 47.3054L21.6599 70.591C22.3176 73.1838 24.6417 74.9983 27.305 74.9983C30.1653 74.9983 32.6025 72.912 33.0566 70.0748L35.7359 53.3346C36.0514 51.363 37.745 49.9132 39.7327 49.9132C41.7203 49.9132 43.414 51.363 43.7295 53.3346L46.4087 70.0748C46.8628 72.912 49.3 74.9983 52.1603 74.9983C54.8236 74.9983 57.1477 73.1838 57.8054 70.591L63.7121 47.3054L70.0014 31.4551L69.9991 31.4541C72.5255 24.8035 71.68 17.6773 68.2964 12.4863L9.58594 31.7627Z" fill="url(#paint1_linear_8707_12202)"></path></mask><g mask="url(#mask0_8707_12202)"><rect y="12.4863" width="77.5249" height="67.512" fill="url(#paint2_linear_8707_12202)"></rect><g filter="url(#filter0_f_8707_12202)"><path d="M49.0425 39.5866C52.6325 40.8367 56.564 38.9932 57.8988 35.4338L62.3674 23.5174L67.0891 12.9985L12.3047 30.9734C17.7284 30.1181 23.2793 30.6154 28.4646 32.421L49.0425 39.5866Z" fill="url(#paint3_linear_8707_12202)" fill-opacity="0.17"></path></g><g filter="url(#filter1_f_8707_12202)"><path d="M36.9881 35.7739C49.4317 40.3988 62.893 32.033 64.2558 18.8279C64.3428 17.9847 64.624 17.1731 65.0774 16.4568L68.4238 11.1694L67.0891 12.9983L12.3047 30.9731L12.7979 30.8953C17.8909 30.0922 23.1049 30.6139 27.9378 32.4102L36.9881 35.7739Z" fill="url(#paint4_linear_8707_12202)" fill-opacity="0.17"></path></g><g filter="url(#filter2_f_8707_12202)"><path d="M47.694 39.7529C54.6372 42.3335 62.117 37.5388 62.6711 30.1522C62.9174 26.8686 63.6502 23.6398 64.8454 20.5715L67.059 14.8888C67.6511 13.3689 66.0196 11.9399 64.5909 12.7271L12.3047 30.9731L16.5555 30.3028C19.185 29.8882 21.8769 30.1575 24.372 31.0849L47.694 39.7529Z" fill="url(#paint5_linear_8707_12202)" fill-opacity="0.17"></path></g><path d="M59.5335 26.8807C57.1949 32.166 51.421 35.0334 45.7968 33.7026L34.253 30.9712C26.1978 29.4266 17.9025 29.6608 9.94727 31.6572L68.3468 12.467C66.5325 13.0632 65.0559 14.4003 64.2831 16.1467L59.5335 26.8807Z" fill="url(#paint6_linear_8707_12202)"></path></g><defs><filter id="filter0_f_8707_12202" x="11.3047" y="11.9985" width="56.7852" height="28.9792" color-interpolation-filters="sRGB"><feGaussianBlur stdDeviation="0.5"></feGaussianBlur></filter><filter id="filter1_f_8707_12202" x="7.30469" y="6.16943" width="66.1191" height="35.8896" color-interpolation-filters="sRGB"><feGaussianBlur stdDeviation="2.5"></feGaussianBlur></filter><filter id="filter2_f_8707_12202" x="7.30469" y="7.50366" width="64.8789" height="37.9546" color-interpolation-filters="sRGB"><feGaussianBlur stdDeviation="2.5"></feGaussianBlur></filter><linearGradient id="paint0_linear_8707_12202" x1="7.99953" y1="-12.5017" x2="39.9995" y2="47.4983" gradientUnits="userSpaceOnUse"><stop stop-color="#F6F1E8"></stop><stop offset="1" stop-color="#D8B682"></stop></linearGradient><linearGradient id="paint1_linear_8707_12202" x1="16.5413" y1="4.9983" x2="54.4797" y2="72.7427" gradientUnits="userSpaceOnUse"><stop stop-color="#F1F7FA"></stop><stop offset="1" stop-color="#CFE0F3"></stop></linearGradient><linearGradient id="paint2_linear_8707_12202" x1="26.5266" y1="23.3599" x2="49.9212" y2="73.6687" gradientUnits="userSpaceOnUse"><stop stop-color="#F0F6FA"></stop><stop offset="1" stop-color="#CEE0F3"></stop></linearGradient><linearGradient id="paint3_linear_8707_12202" x1="48.7607" y1="20.9072" x2="53.5898" y2="44.2477" gradientUnits="userSpaceOnUse"><stop stop-color="#134980"></stop><stop offset="1" stop-color="#236BB4" stop-opacity="0"></stop></linearGradient><linearGradient id="paint4_linear_8707_12202" x1="48.7607" y1="20.9069" x2="53.5898" y2="44.2475" gradientUnits="userSpaceOnUse"><stop stop-color="#134980"></stop><stop offset="1" stop-color="#236BB4" stop-opacity="0"></stop></linearGradient><linearGradient id="paint5_linear_8707_12202" x1="48.7607" y1="20.9069" x2="53.5898" y2="44.2474" gradientUnits="userSpaceOnUse"><stop stop-color="#134980"></stop><stop offset="1" stop-color="#236BB4" stop-opacity="0"></stop></linearGradient><linearGradient id="paint6_linear_8707_12202" x1="45.5096" y1="34.0785" x2="40.9463" y2="21.4619" gradientUnits="userSpaceOnUse"><stop stop-color="#F4F8FB"></stop><stop offset="0.651561" stop-color="white"></stop><stop offset="1" stop-color="#F9F6F2"></stop></linearGradient></defs></svg>