<svg xmlns="http://www.w3.org/2000/svg" width="80" height="80" viewBox="0 0 80 80" fill="none"><path fill-rule="evenodd" clip-rule="evenodd" d="M48.3118 6.37073C43.329 8.50552 36.1375 8.50551 31.1548 6.37072C27.1063 4.63622 22.5779 4.47538 18.3995 6.29289C9.58175 10.1284 5.62683 21.337 9.46466 31.4481C9.46551 31.4504 9.46547 31.4529 9.46454 31.4551L10.6622 34.0593C14.7107 42.8624 17.7622 52.0905 19.7601 61.5718L21.6606 70.591C22.3183 73.1838 24.6424 74.9983 27.3057 74.9983C30.166 74.9983 32.6032 72.912 33.0573 70.0748L35.7366 53.3345C36.0521 51.363 37.7457 49.9132 39.7334 49.9132C41.721 49.9132 43.4146 51.363 43.7302 53.3346L46.4094 70.0748C46.8635 72.912 49.3007 74.9983 52.161 74.9983C54.8243 74.9983 57.1484 73.1838 57.8061 70.591L59.7066 61.5718C61.7044 52.0905 64.756 42.8624 68.8045 34.0593L70.0021 31.4551C70.0012 31.4529 70.0012 31.4504 70.002 31.4481C73.8398 21.337 69.8849 10.1284 61.0672 6.29289C56.8888 4.47536 52.3603 4.63621 48.3118 6.37073Z" fill="url(#paint0_linear_8707_12136)"></path><path fill-rule="evenodd" clip-rule="evenodd" d="M48.3118 6.37073C43.329 8.50552 36.1375 8.50551 31.1548 6.37072C27.1063 4.63622 22.5779 4.47538 18.3995 6.29289C9.58175 10.1284 5.62683 21.337 9.46466 31.4481C9.46551 31.4504 9.46547 31.4529 9.46454 31.4551L10.6622 34.0593C14.7107 42.8624 17.7622 52.0905 19.7601 61.5718L21.6606 70.591C22.3183 73.1838 24.6424 74.9983 27.3057 74.9983C30.166 74.9983 32.6032 72.912 33.0573 70.0748L35.7366 53.3345C36.0521 51.363 37.7457 49.9132 39.7334 49.9132C41.721 49.9132 43.4146 51.363 43.7302 53.3346L46.4094 70.0748C46.8635 72.912 49.3007 74.9983 52.161 74.9983C54.8243 74.9983 57.1484 73.1838 57.8061 70.591L59.7066 61.5718C61.7044 52.0905 64.756 42.8624 68.8045 34.0593L70.0021 31.4551C70.0012 31.4529 70.0012 31.4504 70.002 31.4481C73.8398 21.337 69.8849 10.1284 61.0672 6.29289C56.8888 4.47536 52.3603 4.63621 48.3118 6.37073Z" fill="url(#paint1_linear_8707_12136)"></path><path fill-rule="evenodd" clip-rule="evenodd" d="M30.0879 5.95391C30.6292 12.944 33.8347 24.2419 43.9624 32.9487C50.288 38.3869 58.1772 41.0777 65.3751 42.2418C66.4242 39.4779 67.568 36.7488 68.8049 34.0593L70.0026 31.4551C70.0016 31.4529 70.0016 31.4504 70.0024 31.4481C73.8403 21.337 69.8853 10.1284 61.0676 6.29289C56.8892 4.47536 52.3607 4.63621 48.3122 6.37073C43.3294 8.50552 36.138 8.50551 31.1552 6.37072C30.8029 6.21978 30.4469 6.08075 30.0879 5.95391Z" fill="url(#paint2_linear_8707_12136)"></path><path fill-rule="evenodd" clip-rule="evenodd" d="M30.0879 5.95391C30.6292 12.944 33.8347 24.2419 43.9624 32.9487C50.288 38.3869 58.1772 41.0777 65.3751 42.2418C66.4242 39.4779 67.568 36.7488 68.8049 34.0593L70.0026 31.4551C70.0016 31.4529 70.0016 31.4504 70.0024 31.4481C73.8403 21.337 69.8853 10.1284 61.0676 6.29289C56.8892 4.47536 52.3607 4.63621 48.3122 6.37073C43.3294 8.50552 36.138 8.50551 31.1552 6.37072C30.8029 6.21978 30.4469 6.08075 30.0879 5.95391Z" fill="url(#paint3_linear_8707_12136)" fill-opacity="0.1"></path><path fill-rule="evenodd" clip-rule="evenodd" d="M30.0879 5.95391C30.6292 12.944 33.8347 24.2419 43.9624 32.9487C50.288 38.3869 58.1772 41.0777 65.3751 42.2418C66.4242 39.4779 67.568 36.7488 68.8049 34.0593L70.0026 31.4551C70.0016 31.4529 70.0016 31.4504 70.0024 31.4481C73.8403 21.337 69.8853 10.1284 61.0676 6.29289C56.8892 4.47536 52.3607 4.63621 48.3122 6.37073C43.3294 8.50552 36.138 8.50551 31.1552 6.37072C30.8029 6.21978 30.4469 6.08075 30.0879 5.95391Z" fill="url(#paint4_linear_8707_12136)" fill-opacity="0.1"></path><path fill-rule="evenodd" clip-rule="evenodd" d="M30.0879 5.95391C30.6292 12.944 33.8347 24.2419 43.9624 32.9487C50.288 38.3869 58.1772 41.0777 65.3751 42.2418C66.4242 39.4779 67.568 36.7488 68.8049 34.0593L70.0026 31.4551C70.0016 31.4529 70.0016 31.4504 70.0024 31.4481C73.8403 21.337 69.8853 10.1284 61.0676 6.29289C56.8892 4.47536 52.3607 4.63621 48.3122 6.37073C43.3294 8.50552 36.138 8.50551 31.1552 6.37072C30.8029 6.21978 30.4469 6.08075 30.0879 5.95391Z" fill="url(#paint5_linear_8707_12136)"></path><path fill-rule="evenodd" clip-rule="evenodd" d="M30.0879 5.95391C30.6292 12.944 33.8347 24.2419 43.9624 32.9487C50.288 38.3869 58.1772 41.0777 65.3751 42.2418C66.4242 39.4779 67.568 36.7488 68.8049 34.0593L70.0026 31.4551C70.0016 31.4529 70.0016 31.4504 70.0024 31.4481C73.8403 21.337 69.8853 10.1284 61.0676 6.29289C56.8892 4.47536 52.3607 4.63621 48.3122 6.37073C43.3294 8.50552 36.138 8.50551 31.1552 6.37072C30.8029 6.21978 30.4469 6.08075 30.0879 5.95391Z" fill="url(#paint6_linear_8707_12136)" fill-opacity="0.1"></path><path fill-rule="evenodd" clip-rule="evenodd" d="M30.0879 5.95391C30.6292 12.944 33.8347 24.2419 43.9624 32.9487C50.288 38.3869 58.1772 41.0777 65.3751 42.2418C66.4242 39.4779 67.568 36.7488 68.8049 34.0593L70.0026 31.4551C70.0016 31.4529 70.0016 31.4504 70.0024 31.4481C73.8403 21.337 69.8853 10.1284 61.0676 6.29289C56.8892 4.47536 52.3607 4.63621 48.3122 6.37073C43.3294 8.50552 36.138 8.50551 31.1552 6.37072C30.8029 6.21978 30.4469 6.08075 30.0879 5.95391Z" fill="url(#paint7_linear_8707_12136)" fill-opacity="0.1"></path><path d="M32.8027 17.3234C34.891 22.5478 38.3722 28.143 43.9622 32.9487C47.2743 35.7962 51.0151 37.8904 54.8609 39.4067L59.3994 28.7192C62.3102 21.8648 56.112 14.6425 48.8953 16.4795L44.0857 17.7038C40.7517 18.5524 37.2551 18.5267 33.9339 17.6291L32.8027 17.3234Z" fill="url(#paint8_radial_8707_12136)"></path><defs><linearGradient id="paint0_linear_8707_12136" x1="16.4" y1="4.99829" x2="54.6667" y2="72.1983" gradientUnits="userSpaceOnUse"><stop stop-color="#F0F6F9"></stop><stop offset="1" stop-color="#CDDFF2"></stop></linearGradient><linearGradient id="paint1_linear_8707_12136" x1="16.4" y1="4.99829" x2="54.6667" y2="72.1983" gradientUnits="userSpaceOnUse"><stop stop-color="#F0F6F9"></stop><stop offset="1" stop-color="#CDDFF2"></stop></linearGradient><linearGradient id="paint2_linear_8707_12136" x1="61.0002" y1="2.99829" x2="39.0002" y2="48.4983" gradientUnits="userSpaceOnUse"><stop stop-color="#E0EDF6"></stop><stop offset="1" stop-color="#A5CAE8"></stop></linearGradient><linearGradient id="paint3_linear_8707_12136" x1="29.0002" y1="11.4983" x2="35.5002" y2="11.4983" gradientUnits="userSpaceOnUse"><stop stop-color="#043A70"></stop><stop offset="1" stop-color="#065099" stop-opacity="0"></stop></linearGradient><linearGradient id="paint4_linear_8707_12136" x1="61.5002" y1="44.4983" x2="61.5002" y2="37.9983" gradientUnits="userSpaceOnUse"><stop stop-color="#002C57"></stop><stop offset="1" stop-color="#065099" stop-opacity="0"></stop></linearGradient><linearGradient id="paint5_linear_8707_12136" x1="61.0002" y1="2.99829" x2="39.0002" y2="48.4983" gradientUnits="userSpaceOnUse"><stop stop-color="#E0EDF6"></stop><stop offset="1" stop-color="#A5CAE8"></stop></linearGradient><linearGradient id="paint6_linear_8707_12136" x1="29.0002" y1="11.4983" x2="35.5002" y2="11.4983" gradientUnits="userSpaceOnUse"><stop stop-color="#043A70"></stop><stop offset="1" stop-color="#065099" stop-opacity="0"></stop></linearGradient><linearGradient id="paint7_linear_8707_12136" x1="61.5002" y1="44.4983" x2="61.5002" y2="37.9983" gradientUnits="userSpaceOnUse"><stop stop-color="#002C57"></stop><stop offset="1" stop-color="#065099" stop-opacity="0"></stop></linearGradient><radialGradient id="paint8_radial_8707_12136" cx="0" cy="0" r="1" gradientUnits="userSpaceOnUse" gradientTransform="translate(43.5 32.9983) rotate(-49.5378) scale(22.3439 24.599)"><stop stop-color="#F5A2A1"></stop><stop offset="1" stop-color="#D96F6E"></stop></radialGradient></defs></svg>