<svg xmlns="http://www.w3.org/2000/svg" width="80" height="80" viewBox="0 0 80 80" fill="none"><g clip-path="url(#clip0_9344_2062)"><rect y="-0.00170898" width="80" height="80" rx="16" fill="#1B2C3B"></rect><path fill-rule="evenodd" clip-rule="evenodd" d="M47.0285 13.1159C42.946 14.8542 37.0539 14.8542 32.9713 13.1158C29.6543 11.7035 25.9441 11.5725 22.5206 13.0525C15.296 16.1757 12.0556 25.3027 15.2 33.536C15.2007 33.5378 15.2007 33.5399 15.1999 33.5417L16.1812 35.6622C19.4982 42.8305 21.9985 50.3448 23.6354 58.0653L25.1925 65.4095C25.7314 67.5207 27.6356 68.9983 29.8177 68.9983C32.1612 68.9983 34.1581 67.2995 34.5301 64.9892L36.7253 51.3578C36.9839 49.7524 38.3715 48.5719 40 48.5719C41.6286 48.5719 43.0162 49.7524 43.2747 51.3578L45.4699 64.9891C45.8419 67.2995 47.8388 68.9983 50.1823 68.9983C52.3644 68.9983 54.2686 67.5207 54.8075 65.4095L56.3646 58.0653C58.0015 50.3448 60.5018 42.8305 63.8188 35.6622L64.8001 33.5417C64.7993 33.5399 64.7993 33.5378 64.8 33.536C67.9444 25.3027 64.704 16.1757 57.4794 13.0525C54.0559 11.5725 50.3456 11.7035 47.0285 13.1159Z" fill="url(#paint0_linear_9344_2062)"></path><path d="M36.7149 44.4277C37.7537 43.9166 38.8797 43.6777 40 43.7109C41.1203 43.6777 42.2463 43.9166 43.2851 44.4277C45.8353 45.6824 47.5705 48.242 47.858 51.1733L48.833 61.112C48.8732 61.5214 49.1657 61.8646 49.5648 61.9672C50.1839 62.1263 50.7779 61.6546 50.7779 61.0166V56.4454C50.7779 51.0112 51.776 45.6275 53.7179 40.5868L57.434 30.9408C59.7629 24.8958 54.5357 18.6468 48.495 20.2544L43.9551 21.4626C42.6569 21.8081 41.3292 21.9898 40 22.0077C38.6708 21.9898 37.3431 21.8081 36.0449 21.4626L31.505 20.2544C25.4643 18.6468 20.2371 24.8958 22.566 30.9408L26.2821 40.5868C28.224 45.6275 29.2221 51.0112 29.2221 56.4454V61.0166C29.2221 61.6546 29.8161 62.1263 30.4352 61.9672C30.8343 61.8646 31.1268 61.5214 31.167 61.112L32.142 51.1733C32.4295 48.242 34.1647 45.6824 36.7149 44.4277Z" fill="url(#paint1_radial_9344_2062)"></path><path d="M80 30.9983C80 30.9983 62.0914 37.926 40 37.926C17.9086 37.926 0 30.9983 0 30.9983V67.9983H80V30.9983Z" fill="url(#paint2_linear_9344_2062)"></path></g><defs><linearGradient id="paint0_linear_9344_2062" x1="40" y1="11.9983" x2="40" y2="68.9983" gradientUnits="userSpaceOnUse"><stop stop-color="#5F8AAB"></stop><stop offset="1" stop-color="#3A556A"></stop></linearGradient><radialGradient id="paint1_radial_9344_2062" cx="0" cy="0" r="1" gradientUnits="userSpaceOnUse" gradientTransform="translate(40 44.2049) rotate(-108.454) scale(25.6575 21.9255)"><stop stop-color="#375168"></stop><stop offset="1" stop-color="#2C4255"></stop></radialGradient><linearGradient id="paint2_linear_9344_2062" x1="40" y1="30.9983" x2="40" y2="62.0997" gradientUnits="userSpaceOnUse"><stop stop-color="#466780"></stop><stop offset="1" stop-color="#486881" stop-opacity="0"></stop></linearGradient><clipPath id="clip0_9344_2062"><rect width="80" height="80" fill="white" transform="translate(0 -0.00170898)"></rect></clipPath></defs></svg>