<svg xmlns="http://www.w3.org/2000/svg" width="80" height="80" viewBox="0 0 80 80" fill="none"><g clip-path="url(#clip0_8707_12121)"><path d="M42.9519 78.3511C41.1166 79.4571 38.8833 79.4571 37.0481 78.351C31.1123 74.7736 17.672 65.2924 10.3149 49.1601C4.96619 37.4317 4.84632 20.8978 5.05531 14.153C5.10723 12.4772 6.57094 11.2178 8.24747 11.2266C11.8989 11.246 18.3196 10.9054 24.6426 8.74783C30.7476 6.66465 35.2947 3.69627 37.7988 1.80867C39.0757 0.846145 40.9242 0.846141 42.2011 1.80866C44.7053 3.69626 49.2524 6.66464 55.3574 8.74783C61.6804 10.9054 68.1011 11.246 71.7525 11.2266C73.429 11.2178 74.8927 12.4772 74.9447 14.153C75.1537 20.8978 75.0338 37.4317 69.6851 49.1601C62.328 65.2924 48.8876 74.7736 42.9519 78.3511Z" fill="url(#paint0_linear_8707_12121)"></path><path fill-rule="evenodd" clip-rule="evenodd" d="M43.5143 25.5669C41.473 26.4513 38.5269 26.4513 36.4857 25.5669C34.8272 24.8483 32.972 24.7817 31.2603 25.5346C27.648 27.1236 26.0278 31.7672 27.6 35.9561C27.6004 35.957 27.6004 35.958 27.6 35.959L28.0906 37.0378C29.7491 40.6849 30.9992 44.5079 31.8177 48.4359L32.5963 52.1724C32.8657 53.2466 33.8178 53.9983 34.9088 53.9983C36.0806 53.9983 37.079 53.134 37.2651 51.9586L38.3627 45.0233C38.4919 44.2065 39.1857 43.6059 40 43.6059C40.8143 43.6059 41.5081 44.2065 41.6374 45.0233L42.7349 51.9586C42.921 53.134 43.9194 53.9983 45.0912 53.9983C46.1822 53.9983 47.1343 53.2466 47.4037 52.1724L48.1823 48.4359C49.0008 44.5079 50.2509 40.6848 51.9094 37.0378L52.4 35.959C52.3996 35.958 52.3996 35.957 52.4 35.9561C53.9722 31.7672 52.352 27.1236 48.7397 25.5346C47.028 24.7816 45.1728 24.8483 43.5143 25.5669Z" fill="url(#paint1_linear_8707_12121)"></path><path fill-rule="evenodd" clip-rule="evenodd" d="M38.2278 75.748C39.3271 76.4092 40.674 76.4092 41.7733 75.748C46.5471 72.8764 59.7987 63.8253 67.0276 48.1063C72.3522 36.528 72.4209 20.0708 72.3011 14.9991C72.281 14.1491 71.5429 13.5085 70.6931 13.5359C67.7176 13.6322 60.9156 13.5433 54.2314 11.2816C47.7444 9.08647 43.1556 5.53487 41.1427 3.76881C40.5005 3.20532 39.5007 3.20532 38.8584 3.76881C36.8456 5.53487 32.2568 9.08647 25.7698 11.2816C19.0856 13.5433 12.2836 13.6322 9.30809 13.5359C8.45823 13.5085 7.72017 14.1491 7.70008 14.9991C7.58022 20.0708 7.64889 36.528 12.9735 48.1063C20.2024 63.8253 33.454 72.8764 38.2278 75.748ZM38.6936 67.2672C39.5052 67.7493 40.4959 67.7493 41.3074 67.2672C44.8437 65.1665 54.6944 58.4827 60.0659 46.4982C64.076 37.5512 64.0707 24.5469 63.9771 20.8133C63.9629 20.2447 63.4719 19.8151 62.9035 19.8361C60.7596 19.9154 55.6174 19.8768 50.5658 18.1229C45.6147 16.4039 42.1531 13.8238 40.7274 12.6371C40.3126 12.2918 39.6885 12.2918 39.2737 12.6371C37.848 13.8238 34.3864 16.4039 29.4353 18.1229C24.3837 19.8768 19.2415 19.9154 17.0976 19.8361C16.5292 19.8151 16.0382 20.2447 16.024 20.8133C15.9304 24.5469 15.9251 37.5512 19.9351 46.4982C25.3066 58.4827 35.1573 65.1665 38.6936 67.2672Z" fill="url(#paint2_linear_8707_12121)"></path><path fill-rule="evenodd" clip-rule="evenodd" d="M38.2278 75.748C39.3271 76.4092 40.674 76.4092 41.7733 75.748C46.5471 72.8764 59.7987 63.8253 67.0276 48.1063C72.3522 36.528 72.4209 20.0708 72.3011 14.9991C72.281 14.1491 71.5429 13.5085 70.6931 13.5359C67.7176 13.6322 60.9156 13.5433 54.2314 11.2816C47.7444 9.08647 43.1556 5.53487 41.1427 3.76881C40.5005 3.20532 39.5007 3.20532 38.8584 3.76881C36.8456 5.53487 32.2568 9.08647 25.7698 11.2816C19.0856 13.5433 12.2836 13.6322 9.30809 13.5359C8.45823 13.5085 7.72017 14.1491 7.70008 14.9991C7.58022 20.0708 7.64889 36.528 12.9735 48.1063C20.2024 63.8253 33.454 72.8764 38.2278 75.748ZM38.6936 67.2672C39.5052 67.7493 40.4959 67.7493 41.3074 67.2672C44.8437 65.1665 54.6944 58.4827 60.0659 46.4982C64.076 37.5512 64.0707 24.5469 63.9771 20.8133C63.9629 20.2447 63.4719 19.8151 62.9035 19.8361C60.7596 19.9154 55.6174 19.8768 50.5658 18.1229C45.6147 16.4039 42.1531 13.8238 40.7274 12.6371C40.3126 12.2918 39.6885 12.2918 39.2737 12.6371C37.848 13.8238 34.3864 16.4039 29.4353 18.1229C24.3837 19.8768 19.2415 19.9154 17.0976 19.8361C16.5292 19.8151 16.0382 20.2447 16.024 20.8133C15.9304 24.5469 15.9251 37.5512 19.9351 46.4982C25.3066 58.4827 35.1573 65.1665 38.6936 67.2672Z" fill="url(#paint3_linear_8707_12121)" fill-opacity="0.2"></path><path fill-rule="evenodd" clip-rule="evenodd" d="M38.2278 75.748C39.3271 76.4092 40.674 76.4092 41.7733 75.748C46.5471 72.8764 59.7987 63.8253 67.0276 48.1063C72.3522 36.528 72.4209 20.0708 72.3011 14.9991C72.281 14.1491 71.5429 13.5085 70.6931 13.5359C67.7176 13.6322 60.9156 13.5433 54.2314 11.2816C47.7444 9.08647 43.1556 5.53487 41.1427 3.76881C40.5005 3.20532 39.5007 3.20532 38.8584 3.76881C36.8456 5.53487 32.2568 9.08647 25.7698 11.2816C19.0856 13.5433 12.2836 13.6322 9.30809 13.5359C8.45823 13.5085 7.72017 14.1491 7.70008 14.9991C7.58022 20.0708 7.64889 36.528 12.9735 48.1063C20.2024 63.8253 33.454 72.8764 38.2278 75.748ZM38.6936 67.2672C39.5052 67.7493 40.4959 67.7493 41.3074 67.2672C44.8437 65.1665 54.6944 58.4827 60.0659 46.4982C64.076 37.5512 64.0707 24.5469 63.9771 20.8133C63.9629 20.2447 63.4719 19.8151 62.9035 19.8361C60.7596 19.9154 55.6174 19.8768 50.5658 18.1229C45.6147 16.4039 42.1531 13.8238 40.7274 12.6371C40.3126 12.2918 39.6885 12.2918 39.2737 12.6371C37.848 13.8238 34.3864 16.4039 29.4353 18.1229C24.3837 19.8768 19.2415 19.9154 17.0976 19.8361C16.5292 19.8151 16.0382 20.2447 16.024 20.8133C15.9304 24.5469 15.9251 37.5512 19.9351 46.4982C25.3066 58.4827 35.1573 65.1665 38.6936 67.2672Z" fill="url(#paint4_angular_8707_12121)" fill-opacity="0.14"></path><g filter="url(#filter0_d_8707_12121)"><rect x="38" y="1.99829" width="4" height="7" rx="2" fill="#E2E6F5"></rect></g><g filter="url(#filter1_d_8707_12121)"><rect x="38" y="70.9983" width="4" height="7" rx="2" fill="#C7CBDF"></rect></g><g filter="url(#filter2_d_8707_12121)"><rect x="6" y="14.8267" width="4" height="5" rx="2" transform="rotate(-45 6 14.8267)" fill="#DEE2F2"></rect></g><g filter="url(#filter3_d_8707_12121)"><rect width="4" height="5" rx="2" transform="matrix(-0.707107 -0.707107 -0.707107 0.707107 74.3633 14.8267)" fill="#DEE2F2"></rect></g></g><defs><filter id="filter0_d_8707_12121" x="34" y="1.99829" width="12" height="15" color-interpolation-filters="sRGB"><feGaussianBlur stdDeviation="2"></feGaussianBlur></filter><filter id="filter1_d_8707_12121" x="34" y="63.9983" width="12" height="15" color-interpolation-filters="sRGB"><feGaussianBlur stdDeviation="2"></feGaussianBlur></filter><filter id="filter2_d_8707_12121" x="3.82812" y="11.8267" width="12.707" height="12.707" color-interpolation-filters="sRGB"><feGaussianBlur stdDeviation="2"></feGaussianBlur></filter><filter id="filter3_d_8707_12121" x="63.8281" y="11.8267" width="12.707" height="12.707" color-interpolation-filters="sRGB"><feGaussianBlur stdDeviation="2"></feGaussianBlur></filter><linearGradient id="paint0_linear_8707_12121" x1="40" y1="-0.00170897" x2="41.0189" y2="79.9853" gradientUnits="userSpaceOnUse"><stop stop-color="#E2E6F5"></stop><stop offset="1" stop-color="#C6CADE"></stop></linearGradient><linearGradient id="paint1_linear_8707_12121" x1="30.4412" y1="24.9983" x2="46.3848" y2="52.6845" gradientUnits="userSpaceOnUse"><stop stop-color="#F5F6FA"></stop><stop offset="1" stop-color="#DDDFEA"></stop></linearGradient><linearGradient id="paint2_linear_8707_12121" x1="47.783" y1="74.0079" x2="-17.7525" y2="-35.1946" gradientUnits="userSpaceOnUse"><stop stop-color="#E2E6F5"></stop><stop offset="0.705135" stop-color="#C6CADE"></stop></linearGradient><linearGradient id="paint3_linear_8707_12121" x1="40.0006" y1="3.1351" x2="40.0006" y2="76.2439" gradientUnits="userSpaceOnUse"><stop stop-color="#9DA6CE"></stop><stop offset="1" stop-color="#CED2E4"></stop></linearGradient><radialGradient id="paint4_angular_8707_12121" cx="0" cy="0" r="1" gradientUnits="userSpaceOnUse" gradientTransform="translate(40.0005 -10.0018) rotate(90) scale(86.5 69.4527)"><stop offset="0.000281262" stop-color="#454D6C" stop-opacity="0.67"></stop><stop offset="0.999714" stop-color="#CCD1E5"></stop></radialGradient><clipPath id="clip0_8707_12121"><rect width="80" height="80" fill="white" transform="translate(0 -0.00170898)"></rect></clipPath></defs></svg>